<?xml version="1.0" encoding="UTF-8"?> <svg xmlns="http://www.w3.org/2000/svg" viewBox="0 0 2060.16 473.87"><defs><style> .a { fill: #fff; } </style></defs><g><path class="a" d="M85.55.68q23.34,0,30.86,25.2a5.78,5.78,0,0,1,.78,3.08,4.53,4.53,0,0,1-1.71,3.36A5.14,5.14,0,0,1,112,33.89q-3,0-3.61-3.71A26.66,26.66,0,0,0,101,15.23,20.73,20.73,0,0,0,85.55,9.08q-9.37,0-14.16,6.54A25.46,25.46,0,0,0,66.6,31.05,74,74,0,0,0,69,49.32a167.67,167.67,0,0,0,6,18.75q3.61,9.38,7.76,18.75t7.77,18.84q8.4,22,8.4,39.51a56.81,56.81,0,0,1-9.67,32.08q-12.41,19-39.06,19-20.41,0-35.31-10.16T0,157q0-18.94,11.33-32.71a92.22,92.22,0,0,1,10.06-10.26,5.91,5.91,0,0,1,3.71-1.66c2.6,0,3.9,1.08,3.9,3.22a5.45,5.45,0,0,1-.88,3q-10,9.18-13.18,15.24Q9.57,144.44,9.57,154.2T13,169.82a30.16,30.16,0,0,0,9.08,9.77q11.13,7.82,29,7.81t28.85-14.06q9.48-12,9.48-29.35T73.14,89Q56.94,51.27,56.93,36.57t7-25.29Q71,.69,85.55.68Z"></path><path class="a" d="M164,177.64q3.42,0,3.42,3.61,0,4.2-10.25,9.47T140,196q-6.84,0-10.25-2.25a16.79,16.79,0,0,1-5.57-6.25q-4.2-7.81-4.2-18.85a113.76,113.76,0,0,1,5.86-36.81q5.87-17.3,15.62-28.67T162.6,91.8a11,11,0,0,1,9.52,5,20.39,20.39,0,0,1,3.47,11.86q0,12.8-6.69,21.68a54.61,54.61,0,0,1-16.46,14.55A171.7,171.7,0,0,1,130,155.66L129.59,170q0,16.8,10.16,16.8a24.55,24.55,0,0,0,11.47-3.18c4-2.11,6.89-3.64,8.64-4.59A9.71,9.71,0,0,1,164,177.64Zm2.45-68.56q0-7.81-6.55-7.81-5.85,0-13.77,10.55T133,139.65a34.9,34.9,0,0,0-1.47,6.35c2.61-1.44,5.28-2.8,8-4.11s5.4-2.66,8-4.1a42.39,42.39,0,0,0,13.91-11.67Q166.4,119.43,166.41,109.08Z"></path><path class="a" d="M172.66,192.29a9.36,9.36,0,0,1,1.85-4.79q1.86-2.83,11.92-19T204.79,140c-.4-.91-.77-1.91-1.13-3s-1.15-3.4-2.39-7-2.7-7.77-4.39-12.55-2.82-8-3.37-9.72-1.09-3.37-1.62-5-1-3.11-1.41-4.34a9.76,9.76,0,0,1-.64-3.08,4.39,4.39,0,0,1,1.47-2.78A5,5,0,0,1,195.17,91a4.48,4.48,0,0,1,3.8,1.9,16,16,0,0,1,2.3,4.54,42.7,42.7,0,0,1,1.42,5.42,43.9,43.9,0,0,0,1.31,5.23c.52,1.62,1.11,3.35,1.76,5.17s1.3,3.63,2,5.42,1.34,3.61,2.06,5.47,1.46,3.83,2.24,5.91q4-4.89,12.16-16.55t10.45-14.6A19.88,19.88,0,0,1,240.23,94a7.63,7.63,0,0,1,2.84-.58q3.12.58,3.12,3.17a9.39,9.39,0,0,1-1,4.44A40.78,40.78,0,0,1,240,108.5q-3.77,4.48-11.08,15.23t-12.5,16.89Q227.24,167.19,229.2,173a66.53,66.53,0,0,0,4.1,9.86,16.61,16.61,0,0,1,2.15,7.76,5.33,5.33,0,0,1-2.1,3.57,6.58,6.58,0,0,1-4.15,1.42c-1.56,0-2.64-1.05-3.22-3.13a15.33,15.33,0,0,0-2-6.3,47.9,47.9,0,0,1-3.46-8.1q-1.75-5.13-4.89-12.41t-6.24-15.18l-27.35,42a6.21,6.21,0,0,1-5.61,2.93Q172.66,195.41,172.66,192.29Z"></path><path class="a" d="M298.34,93.07q18.45,0,18.46,27.93,0,21.76-12,46.77-8.12,16.8-19.54,24.22a21.91,21.91,0,0,1-12.11,3.81q-11,0-15.82-8.79a39,39,0,0,1-4.78-18.94,104.09,104.09,0,0,1,6.1-35.26q6.11-17.09,16.6-28.42T298.34,93.07Zm-26.17,32.32q-10.55,21.09-10.55,41.21,0,14,7.72,18.75a9.88,9.88,0,0,0,5.37,1.47q6.24,0,14-10.84t13-26.71q5.28-15.87,5.27-27.25t-1.31-14.4a9.58,9.58,0,0,0-3-4.2q-1.71-1.17-5.67-1.17t-8.64,3.12Q279.21,111.24,272.17,125.39Z"></path><path class="a" d="M360.94,181.84q4.4,0,4.39,4.44t-5.81,6.88a34,34,0,0,1-13.28,2.45q-7.47,0-11-4a14.28,14.28,0,0,1-3.51-9.76,82.36,82.36,0,0,1,.63-10.6q.64-4.83,2.2-13.43t3.61-19.33q2.06-10.74,4.59-23T348,90.33q2.64-12.8,5.32-25.39t5.13-24q2.44-11.38,4.49-20.9T366.31,4c.59-2.08,2.08-3.12,4.49-3.12q4.2,0,4.2,4.59V8q-3.81,18.26-7.52,35.54t-12.65,60q-8.93,42.68-11.52,57.71t-2.59,18.07a8.39,8.39,0,0,0,1.86,5.37,5.42,5.42,0,0,0,4.34,2.34,11.93,11.93,0,0,0,4.55-.83c1.36-.55,2.7-1.14,4-1.76s2.47-1.2,3.51-1.75A6.51,6.51,0,0,1,360.94,181.84Z"></path><path class="a" d="M426.76,93.07q18.45,0,18.46,27.93,0,21.76-12,46.77-8.1,16.8-19.53,24.22a21.91,21.91,0,0,1-12.11,3.81q-11,0-15.82-8.79A39,39,0,0,1,381,168.07a104.09,104.09,0,0,1,6.1-35.26q6.1-17.09,16.6-28.42T426.76,93.07Zm-26.17,32.32Q390,146.48,390,166.6q0,14,7.71,18.75a9.94,9.94,0,0,0,5.38,1.47q6.24,0,14-10.84t13-26.71q5.26-15.87,5.27-27.25T434,107.62a9.57,9.57,0,0,0-3-4.2q-1.71-1.17-5.67-1.17c-2.63,0-5.52,1-8.64,3.12Q407.63,111.24,400.59,125.39Z"></path><path class="a" d="M521,94.82c2.15,0,3.22,1.1,3.22,3.28a18.06,18.06,0,0,1-1.17,6.39c-.78,2.09-1.61,4.77-2.49,8.06s-2.14,8.32-3.76,15.09-3.23,13.62-4.79,20.55-3.07,13.86-4.54,20.76-2.91,13.54-4.34,19.92A70.76,70.76,0,0,0,510.5,183c2.44-2.21,4.49-4,6.15-5.32s3.08-2,4.25-2q3.71,0,3.71,3.32a4.89,4.89,0,0,1-1.66,4q-12.41,9.47-21,15.62L496.19,228q-5.85,29.78-14.94,40-7.23,8-16.75,8a21.74,21.74,0,0,1-16-6.49q-6.5-6.49-6.5-17.33,0-15.63,16.12-29.69,6.54-5.67,17.62-13.77t17.43-13.38q.88-4.4,2.1-9.62t2.2-9.52c.65-2.86,1.3-5.7,2-8.5s1.26-5.47,1.81-8,1.06-4.72,1.51-6.55q-5.37,17.29-11.13,26.17-10.64,16.22-18,16.22A14.64,14.64,0,0,1,461.67,190q-4.55-5.56-4.54-14.84,0-17.1,6.44-36.19a103.87,103.87,0,0,1,17.78-32.91q11.32-13.81,24.8-13.81a23.85,23.85,0,0,1,12.21,3.12A5.82,5.82,0,0,1,521,94.82ZM491.6,206.25q-7.32,6.06-14.5,11.47a148,148,0,0,0-12.84,10.8q-12.51,12-12.5,22.7t4.69,13.53A12.17,12.17,0,0,0,462.7,266q8.58,0,14.5-9.33t11.37-34.62Zm-19.19-65.72q-6.2,17.08-6.2,31.3T473.63,186q6.54,0,15.09-12.6a106.35,106.35,0,0,0,13.67-30.13q5.13-17.52,7.77-27.25t3.61-13.23a11.54,11.54,0,0,0-7.71-2.63q-8.9,0-18.17,11.62T472.41,140.53Z"></path><path class="a" d="M660.35,62.4Q644.14,48.74,644.14,30a24.87,24.87,0,0,1,3.17-11.72,29.75,29.75,0,0,1,8.55-10Q666.6,0,682.91,0q22.56,0,35.65,11.62A31.32,31.32,0,0,1,726,21.29l.19,1.17c0,2.34-1.23,4.1-3.71,5.27a4.27,4.27,0,0,1-2,.49q-2.25,0-3.52-3.22-2.54-6.93-11.23-11.33T684.91,9.28a42.54,42.54,0,0,0-22.07,5.86q-9.92,5.85-9.91,16.5,0,13.57,11.13,22.66a31.82,31.82,0,0,0,9.87,5.37h1.85q9.57,0,14.16,4.29a5,5,0,0,1,1.66,3.81,4.68,4.68,0,0,1-1.85,3.76,6.76,6.76,0,0,1-4.4,1.52q-12.11-2.35-15-3.81-17,2-29.15,16.84A53.29,53.29,0,0,0,629,120.8q0,28.32,15.82,47.17t40,18.85q24.23,0,42.48-14.65a50.88,50.88,0,0,0,16.8-23.44,42.56,42.56,0,0,0,2.44-14.06q0-13.09-5-20.95t-15.77-13.23a40.32,40.32,0,0,0-22.36,23.05,30.88,30.88,0,0,0-2,11.32A17.13,17.13,0,0,0,705,145.61a5,5,0,0,1,.78,3,5.61,5.61,0,0,1-5.37,5.23q-3.9,0-6.25-6.64a29.5,29.5,0,0,1-1.95-10.84q0-11.82,7.47-22.9a70.25,70.25,0,0,1,18.7-18.8q4-2.73,13.23-6.06t14-5.37q17-7.32,17-21.38l-1.86-16.21a6.85,6.85,0,0,1,2.3-3.37,5.1,5.1,0,0,1,3.17-1.42q5.37,0,5.37,22.36a21.79,21.79,0,0,1-2.15,8.3,33.73,33.73,0,0,1-6.54,9.67Q753,91.31,735.74,96.48q16.5,9.18,19.14,25.88a73.14,73.14,0,0,1,.88,12.31q0,15.62-10.3,30.08a74.82,74.82,0,0,1-27,23.09q-16.65,8.64-32.38,8.64-29.68,0-48.14-21.43t-18.46-53.17q0-15.34,6.11-27.25t11.67-17.48A64.46,64.46,0,0,1,660.35,62.4Z"></path><path class="a" d="M930,.68q23.34,0,30.86,25.2a5.78,5.78,0,0,1,.78,3.08,4.53,4.53,0,0,1-1.71,3.36,5.12,5.12,0,0,1-3.46,1.57q-3,0-3.62-3.71a26.59,26.59,0,0,0-7.42-14.95A20.73,20.73,0,0,0,930,9.08q-9.37,0-14.16,6.54A25.45,25.45,0,0,0,911,31.05a73.51,73.51,0,0,0,2.39,18.27,165.55,165.55,0,0,0,6,18.75q3.62,9.38,7.77,18.75T935,105.66q8.4,22,8.4,39.51a56.73,56.73,0,0,1-9.67,32.08q-12.41,19-39.06,19-20.42,0-35.3-10.16T844.43,157q0-18.94,11.33-32.71a93.11,93.11,0,0,1,10.06-10.26,5.91,5.91,0,0,1,3.71-1.66c2.61,0,3.91,1.08,3.91,3.22a5.45,5.45,0,0,1-.88,3q-10,9.18-13.18,15.24Q854,144.44,854,154.2t3.42,15.62a30.27,30.27,0,0,0,9.08,9.77q11.14,7.82,29,7.81t28.86-14.06q9.46-12,9.47-29.35T917.58,89q-16.22-37.69-16.21-52.39t7-25.29Q915.44.69,930,.68Z"></path><path class="a" d="M1008.4,177.64q3.42,0,3.42,3.61,0,4.2-10.26,9.47T984.47,196q-6.83,0-10.25-2.25a16.79,16.79,0,0,1-5.57-6.25q-4.2-7.81-4.2-18.85a114,114,0,0,1,5.86-36.81q5.87-17.3,15.63-28.67T1007,91.8a10.93,10.93,0,0,1,9.52,5,20.39,20.39,0,0,1,3.47,11.86q0,12.8-6.69,21.68a54.58,54.58,0,0,1-16.45,14.55,171.86,171.86,0,0,1-22.47,10.74L974,170q0,16.8,10.16,16.8a24.51,24.51,0,0,0,11.47-3.18q6-3.16,8.65-4.59A9.67,9.67,0,0,1,1008.4,177.64Zm2.44-68.56q0-7.81-6.54-7.81-5.87,0-13.77,10.55t-13.09,27.83A35.56,35.56,0,0,0,976,146c2.6-1.44,5.27-2.8,8-4.11s5.41-2.66,8-4.1a42.53,42.53,0,0,0,13.92-11.67Q1010.85,119.43,1010.84,109.08Z"></path><path class="a" d="M1060.84,181.84q4.4,0,4.4,4.44t-5.82,6.88a34,34,0,0,1-13.28,2.45q-7.47,0-11-4a14.24,14.24,0,0,1-3.52-9.76,80.51,80.51,0,0,1,.64-10.6q.63-4.83,2.19-13.43t3.62-19.33q2-10.74,4.59-23t5.17-25.1q2.64-12.8,5.32-25.39t5.13-24q2.45-11.38,4.49-20.9T1066.21,4c.59-2.08,2.08-3.12,4.49-3.12q4.2,0,4.2,4.59V8q-3.81,18.26-7.52,35.54t-12.64,60q-8.94,42.68-11.53,57.71t-2.58,18.07a8.38,8.38,0,0,0,1.85,5.37,5.45,5.45,0,0,0,4.35,2.34,11.88,11.88,0,0,0,4.54-.83c1.37-.55,2.7-1.14,4-1.76s2.48-1.2,3.52-1.75A6.4,6.4,0,0,1,1060.84,181.84Z"></path><path class="a" d="M1116.5,59.47q27.84,2.16,27.84,34.13t-22,71.83a210.68,210.68,0,0,1-16.5,25.19c-2,2.68-3.81,4-5.37,4q-5,0-5.57-4.2-3.51-24.81-5.66-45.26t-6.15-50a6.85,6.85,0,0,1,2.29-3.36,5.13,5.13,0,0,1,3.18-1.42q2.82,0,3.71,3.42,2.14,19.62,4.88,40.92t5.57,45.31q14.55-23,20.31-36.13,11.81-27.45,11.81-48.59t-12.3-25.83a28.27,28.27,0,0,0-6.45-1.76,13.73,13.73,0,0,1-4-1,2.4,2.4,0,0,1-1.12-2.35Q1110.94,60.16,1116.5,59.47Z"></path><path class="a" d="M1184.86,59.47q27.84,2.16,27.84,34.13t-22,71.83a210.68,210.68,0,0,1-16.5,25.19c-2,2.68-3.81,4-5.37,4q-5,0-5.57-4.2-3.51-24.81-5.66-45.26t-6.15-50a6.85,6.85,0,0,1,2.29-3.36,5.13,5.13,0,0,1,3.17-1.42q2.83,0,3.72,3.42,2.14,19.62,4.88,40.92t5.56,45.31q14.55-23,20.32-36.13,11.8-27.45,11.81-48.59t-12.3-25.83a28.27,28.27,0,0,0-6.45-1.76,13.73,13.73,0,0,1-4-1,2.4,2.4,0,0,1-1.12-2.35Q1179.3,60.16,1184.86,59.47Z"></path><path class="a" d="M1284.86,102.54Q1295,91.8,1305.47,91.8a10.93,10.93,0,0,1,9.52,5,20.39,20.39,0,0,1,3.47,11.86q0,12.7-6.69,21.63a54.37,54.37,0,0,1-16.46,14.6,171.08,171.08,0,0,1-22.46,10.74l-.39,14.36q0,16.8,10.16,16.8a24.15,24.15,0,0,0,11.47-3.18l8.6-4.59a10,10,0,0,1,4.15-1.41c2.28,0,3.41,1.2,3.41,3.61q0,4.2-10.25,9.47T1282.91,196q-6.84,0-10.25-2.25-9.87-6.45-9.87-27.73c0-1.83.07-3.65.2-5.47a226.84,226.84,0,0,1-20.8,25.39q-7.82,8.1-14.75,8.1t-9.76-3.66q-2.84-3.66-2.84-10.59,0-14.56,10.7-35.36a153.88,153.88,0,0,1,25.14-36q14.46-15.2,24.13-15.19,7.21,0,9.18,5.57A19.07,19.07,0,0,1,1284.86,102.54Zm-60,77.54c0,2.41,1,3.61,3,3.61a5,5,0,0,0,3.62-1.46q20.4-17.68,36.91-49.61a95.3,95.3,0,0,1,9.28-20.22,22.32,22.32,0,0,0,.19-3.12,6.68,6.68,0,0,0-1-3.42,3,3,0,0,0-2.74-1.66,12.42,12.42,0,0,0-5.17,1.85q-7.53,4.11-18.51,17.49a136.6,136.6,0,0,0-18.31,29.1Q1224.81,168.36,1224.81,180.08Zm78.12-78.81q-5.17,0-11.43,7.32a5.54,5.54,0,0,1,.49,2.1,2,2,0,0,1-.19,1.13q-5.17,5.46-8.3,9.08-7.43,14.85-9.08,25.1,5.85-3.13,12-6.06a59.07,59.07,0,0,0,11.23-6.93,33,33,0,0,0,8.3-9.67,27.66,27.66,0,0,0,3.22-13.87Q1309.18,101.27,1302.93,101.27Z"></path><path class="a" d="M1329,193.65l4.5-23.83q3.51-18.25,4.78-25.92t2.88-16.9q1.62-9.23,6.59-26.51a2.41,2.41,0,0,1-.19-.88v-1q0-4.68,3.61-6.74a4.19,4.19,0,0,1,2.25-.68q4.2,0,4.2,6.06,0,3.51-2.83,12.64a169.67,169.67,0,0,0-4.4,17c.91-1.5,2-3.39,3.37-5.67s3.45-5.6,6.35-10a65.07,65.07,0,0,1,10.94-12.45q6.59-5.91,13.47-5.91t10.5,3.71a4.22,4.22,0,0,1,1.37,3.22,4.63,4.63,0,0,1-1.76,3.52,5.43,5.43,0,0,1-3.61,1.56,7.15,7.15,0,0,1-3.62-1,7.53,7.53,0,0,0-3.9-1c-1.44,0-3.71,1.17-6.84,3.52q-18.65,13.58-30.76,53.81A149.49,149.49,0,0,0,1342,175q-.67,4.05-1.17,6.59-2.92,15.74-9,15.73Q1329,197.27,1329,193.65Z"></path><path class="a" d="M1458,102.05l9.57-42q1-4.5,4.74-23.19t5.51-26l.39-2.44a6.12,6.12,0,0,1,1.71-4.35,5,5,0,0,1,3.57-1.8q4.29,0,4.29,4.59v.87q0,4.8-6.88,36.43T1472,88.67q-2,12.9-7.76,36T1457,156q-1.46,8.1-2.83,13.72a47.17,47.17,0,0,0-1.37,11.18,37.82,37.82,0,0,0,1.76,11.23,6,6,0,0,1-2.15,3.95,5.4,5.4,0,0,1-3.42,1.62c-1.69,0-3.15-2-4.39-6a35.25,35.25,0,0,1-1.86-10.06,46.49,46.49,0,0,1,1.18-9.52q-4,12.1-10.36,17.92t-16.65,5.81q-10.29,0-14.64-8.45A36,36,0,0,1,1398,170.8q0-29.88,11.33-50.59a82.32,82.32,0,0,1,9.32-14.16,52.77,52.77,0,0,1,10.4-8.78q6.36-4.2,15.63-4.2T1458,102.05Zm-7.18,31.4q1.51-8,2-10.16a40.65,40.65,0,0,0,.44-7.23,18.51,18.51,0,0,0-2.93-9.81,9.23,9.23,0,0,0-8.3-4.79q-9.57,0-17.53,12.07a104.48,104.48,0,0,0-12.69,28.12q-4.74,16.07-4.74,27.1t6.25,15.72a8.82,8.82,0,0,0,5.47,1.57q6.93,0,14.84-11.82a108.65,108.65,0,0,0,11.82-22.32A116.91,116.91,0,0,0,1450.83,133.45Z"></path><path class="a" d="M1517.58,100.68q-9.76,0-9.77,11.33a38.58,38.58,0,0,0,3.52,15.53q3.51,8,6,12.79,9.46,18.85,9.47,28.86a25.22,25.22,0,0,1-6.06,17q-6,7-17.48,8.4H1502q-11,0-16-13.58a2.35,2.35,0,0,1-.2-.87v-1a4.68,4.68,0,0,1,1.27-3.37,5.2,5.2,0,0,1,2.74-1.61h1.07a3.87,3.87,0,0,1,3.18,1.56,28.57,28.57,0,0,1,2.29,3.47,25.51,25.51,0,0,0,2.34,3.46c.85,1,2.31,1.57,4.4,1.57q6.65,0,10.59-4.15a13.09,13.09,0,0,0,4-9.23,29.64,29.64,0,0,0-1.47-9.47,121.88,121.88,0,0,0-8.39-18.75q-10-18.47-10-28.72t5.18-16.79q5.17-6.54,14.65-6.55a19.65,19.65,0,0,1,10.06,2.45q7.9,4.59,7.91,10.3t-4.79,5.71a3.61,3.61,0,0,1-2.88-1.32c-.75-.88-1.55-1.84-2.39-2.88Q1522.07,100.68,1517.58,100.68Z"></path><path class="a" d="M1583.2,59.47Q1611,61.63,1611,93.6t-22,71.83a210.68,210.68,0,0,1-16.5,25.19c-2,2.68-3.81,4-5.37,4q-5,0-5.57-4.2-3.51-24.81-5.66-45.26t-6.15-50a6.85,6.85,0,0,1,2.29-3.36,5.13,5.13,0,0,1,3.17-1.42q2.84,0,3.72,3.42,2.15,19.62,4.88,40.92t5.56,45.31q14.55-23,20.32-36.13,11.8-27.45,11.81-48.59t-12.3-25.83a28.27,28.27,0,0,0-6.45-1.76,13.73,13.73,0,0,1-4-1,2.4,2.4,0,0,1-1.12-2.35Q1577.64,60.16,1583.2,59.47Z"></path><path class="a" d="M1660.55,177.64q3.42,0,3.42,3.61,0,4.2-10.26,9.47T1636.62,196q-6.84,0-10.25-2.25a16.79,16.79,0,0,1-5.57-6.25q-4.2-7.81-4.2-18.85a114,114,0,0,1,5.86-36.81q5.86-17.3,15.63-28.67t21.09-11.37a10.93,10.93,0,0,1,9.52,5,20.39,20.39,0,0,1,3.47,11.86q0,12.8-6.69,21.68A54.61,54.61,0,0,1,1649,144.92a171.08,171.08,0,0,1-22.46,10.74l-.39,14.36q0,16.8,10.16,16.8a24.55,24.55,0,0,0,11.47-3.18q6-3.16,8.65-4.59A9.63,9.63,0,0,1,1660.55,177.64Zm2.44-68.56q0-7.81-6.54-7.81-5.87,0-13.77,10.55t-13.09,27.83a34.69,34.69,0,0,0-1.46,6.35c2.6-1.44,5.27-2.8,8-4.11s5.41-2.66,8-4.1a42.53,42.53,0,0,0,13.92-11.67Q1663,119.43,1663,109.08Z"></path><path class="a" d="M1613,264.26q6.45,2.53,17.09,2.54,39,0,48.73-51.18,14.45-76.37,20.21-118.55a5.34,5.34,0,0,1,2.2-3.42,6,6,0,0,1,3.37-1.17q3.42,0,3.42,3.52l-4.3,30.07q-10.83,77.55-20.51,107.23-8.1,24.81-24.12,35.25-12.69,8.31-30.86,8.31-10.83,0-18-3.91c-1.49-.78-2.24-1.76-2.24-2.93a5.43,5.43,0,0,1,1.51-3.52A6.68,6.68,0,0,1,1613,264.26Zm96.58-203.42a6.49,6.49,0,0,1,5.52,2.54,9.34,9.34,0,0,1,1.9,5.76,5.67,5.67,0,0,1-2.58,5,9.55,9.55,0,0,1-5.42,1.76,6.06,6.06,0,0,1-4.89-2.64,8.79,8.79,0,0,1-2-5.42,7,7,0,0,1,2-4.88A7.25,7.25,0,0,1,1709.57,60.84Z"></path><path class="a" d="M1753.22,181.84q4.4,0,4.4,4.44t-5.81,6.88a34,34,0,0,1-13.28,2.45q-7.47,0-11-4a14.29,14.29,0,0,1-3.52-9.76,82.27,82.27,0,0,1,.64-10.6q.63-4.83,2.2-13.43t3.61-19.33q2.05-10.74,4.59-23t5.18-25.1q2.63-12.8,5.32-25.39t5.12-24q2.44-11.38,4.5-20.9T1758.59,4q.89-3.12,4.5-3.12,4.2,0,4.2,4.59V8q-3.81,18.26-7.52,35.54t-12.65,60q-8.94,42.68-11.52,57.71T1733,179.3a8.44,8.44,0,0,0,1.85,5.37,5.45,5.45,0,0,0,4.35,2.34,11.88,11.88,0,0,0,4.54-.83c1.37-.55,2.7-1.14,4-1.76s2.48-1.2,3.52-1.75A6.4,6.4,0,0,1,1753.22,181.84Z"></path><path class="a" d="M1817.87,177.64q3.42,0,3.42,3.61,0,4.2-10.25,9.47T1794,196q-6.84,0-10.26-2.25a16.76,16.76,0,0,1-5.56-6.25q-4.2-7.81-4.2-18.85a113.76,113.76,0,0,1,5.86-36.81q5.85-17.3,15.62-28.67T1816.5,91.8a11,11,0,0,1,9.53,5,20.38,20.38,0,0,1,3.46,11.86q0,12.8-6.69,21.68a54.58,54.58,0,0,1-16.45,14.55,171.7,171.7,0,0,1-22.46,10.74L1783.5,170q0,16.8,10.15,16.8a24.58,24.58,0,0,0,11.48-3.18q6-3.16,8.64-4.59A9.71,9.71,0,0,1,1817.87,177.64Zm2.44-68.56q0-7.81-6.54-7.81-5.87,0-13.77,10.55t-13.08,27.83a34.9,34.9,0,0,0-1.47,6.35c2.6-1.44,5.27-2.8,8-4.11s5.4-2.66,8-4.1a42.49,42.49,0,0,0,13.91-11.67Q1820.32,119.43,1820.31,109.08Z"></path><path class="a" d="M1898.15,102.05l9.57-42q1-4.5,4.73-23.19t5.52-26l.39-2.44a6.12,6.12,0,0,1,1.71-4.35,5,5,0,0,1,3.56-1.8q4.3,0,4.3,4.59v.87q0,4.8-6.88,36.43t-8.94,44.53q-2.05,12.9-7.76,36T1897.17,156q-1.47,8.1-2.83,13.72a46.66,46.66,0,0,0-1.37,11.18,37.82,37.82,0,0,0,1.76,11.23,6.09,6.09,0,0,1-2.15,3.95,5.45,5.45,0,0,1-3.42,1.62c-1.69,0-3.16-2-4.39-6a35.25,35.25,0,0,1-1.86-10.06,46.4,46.4,0,0,1,1.17-9.52q-4,12.1-10.35,17.92t-16.65,5.81q-10.3,0-14.65-8.45a36.07,36.07,0,0,1-4.34-16.55q0-29.88,11.33-50.59a82.32,82.32,0,0,1,9.32-14.16,52.48,52.48,0,0,1,10.4-8.78q6.34-4.2,15.63-4.2T1898.15,102.05Zm-7.18,31.4q1.52-8,2-10.16a41.64,41.64,0,0,0,.44-7.23,18.6,18.6,0,0,0-2.93-9.81,9.23,9.23,0,0,0-8.3-4.79q-9.57,0-17.53,12.07a103.87,103.87,0,0,0-12.69,28.12q-4.74,16.07-4.74,27.1t6.25,15.72a8.82,8.82,0,0,0,5.47,1.57q6.93,0,14.84-11.82a109.64,109.64,0,0,0,11.82-22.32A116.91,116.91,0,0,0,1891,133.45Z"></path><path class="a" d="M1970.51,177.64q3.42,0,3.42,3.61,0,4.2-10.26,9.47T1946.58,196q-6.82,0-10.25-2.25a16.79,16.79,0,0,1-5.57-6.25q-4.2-7.81-4.2-18.85a114,114,0,0,1,5.86-36.81q5.86-17.3,15.63-28.67t21.09-11.37a10.93,10.93,0,0,1,9.52,5,20.39,20.39,0,0,1,3.47,11.86q0,12.8-6.69,21.68A54.58,54.58,0,0,1,1959,144.92a171.86,171.86,0,0,1-22.47,10.74l-.39,14.36q0,16.8,10.16,16.8a24.51,24.51,0,0,0,11.47-3.18q6-3.16,8.65-4.59A9.67,9.67,0,0,1,1970.51,177.64Zm2.44-68.56q0-7.81-6.54-7.81-5.87,0-13.77,10.55t-13.09,27.83a35.56,35.56,0,0,0-1.46,6.35c2.6-1.44,5.27-2.8,8-4.11s5.41-2.66,8-4.1A42.53,42.53,0,0,0,1968,126.12Q1973,119.43,1973,109.08Z"></path><path class="a" d="M1992.77,193.65l4.5-23.83q3.51-18.25,4.78-25.92t2.88-16.9q1.62-9.23,6.59-26.51a2.41,2.41,0,0,1-.19-.88v-1q0-4.68,3.61-6.74a4.19,4.19,0,0,1,2.25-.68q4.2,0,4.2,6.06,0,3.51-2.83,12.64a169.67,169.67,0,0,0-4.4,17c.91-1.5,2-3.39,3.37-5.67s3.45-5.6,6.35-10a65.07,65.07,0,0,1,10.94-12.45q6.59-5.91,13.47-5.91t10.5,3.71a4.22,4.22,0,0,1,1.37,3.22,4.63,4.63,0,0,1-1.76,3.52,5.43,5.43,0,0,1-3.61,1.56,7.12,7.12,0,0,1-3.62-1,7.53,7.53,0,0,0-3.9-1c-1.44,0-3.71,1.17-6.84,3.52q-18.65,13.58-30.76,53.81a149.49,149.49,0,0,0-3.91,14.79q-.67,4.05-1.17,6.59-2.92,15.74-9,15.73Q1992.78,197.27,1992.77,193.65Z"></path></g><g><path class="a" d="M708.75,329.88q2-3.58,4.36-3.59c1.58,0,2.38.73,2.38,2.2v.44q-4.47,74.47-5,137a3.92,3.92,0,0,1-.08,3.81c-1.17,2.39-2.53,3.59-4.1,3.59-1.9,0-2.93-1.69-3.07-5.06q-.07-1.46-.08-9.3t.41-22.26q.39-14.43.95-29t1.13-29q.58-14.46,1-28.6-7.26,16.19-25.16,50.28t-24.06,46.48q-1.7,3.15-3.81,3.15a2.94,2.94,0,0,1-2.93-2.13q-3.81-17.58-11.57-52.37t-10.62-49q-4.92,24.92-15.53,68.71t-13.11,54.93q-1.47,3-4.18,3c-1.51,0-2.36-1-2.56-3q4.75-26.14,16.19-73.58T625,330a5.23,5.23,0,0,1,1.73-2.52,3.82,3.82,0,0,1,2.38-1.06c1.41,0,2.34.83,2.78,2.49q6.23,27,12.56,57.49t10.36,47.68q10-17.28,18.61-34.35t16.88-33.69Q698.64,349.44,708.75,329.88Z"></path><path class="a" d="M733.36,471.46q-8.57,0-8.57-10.77t8-26.4a114.84,114.84,0,0,1,18.86-27q10.85-11.38,17.69-11.39t7.8,6c.19,1.22.34,2.51.44,3.88a2.77,2.77,0,0,1,1.61-.44q3.43,0,3.44,3.29v.59c0,.15-.61,2.34-1.83,6.59A198.7,198.7,0,0,0,776.65,437a166.27,166.27,0,0,0-2.35,25.42l1.54,1a17.73,17.73,0,0,1,2.2,1.68,3.44,3.44,0,0,1,1.32,2.67,4.31,4.31,0,0,1-1,2.75,3.22,3.22,0,0,1-2.71,1.21q-3.59,0-6.48-3.66a12.52,12.52,0,0,1-2.89-7.91q0-9.17,5-31.5a124.12,124.12,0,0,1-16.11,25.12q-9.9,12.09-13.66,14.87A13.48,13.48,0,0,1,733.36,471.46ZM732.26,461c0,1.81.76,2.71,2.27,2.71a3.66,3.66,0,0,0,2.71-1.1q15.16-13,27.17-36.11,6.83-13.17,7.22-15.16A17.18,17.18,0,0,0,772,408a5.1,5.1,0,0,0-.73-2.63,2.28,2.28,0,0,0-2-1.25,9.35,9.35,0,0,0-3.88,1.39q-5.64,3.07-13.88,13.11a102.52,102.52,0,0,0-13.74,21.83Q732.26,452.19,732.26,461Z"></path><path class="a" d="M795.76,471.16l3.37-17.87q2.64-13.69,3.59-19.44t2.16-12.68q1.22-6.92,4.94-19.88a2,2,0,0,1-.14-.66v-.73a5.36,5.36,0,0,1,2.71-5.06,3.09,3.09,0,0,1,1.68-.51q3.15,0,3.15,4.54,0,2.64-2.12,9.49a126.39,126.39,0,0,0-3.3,12.7c.68-1.12,1.53-2.53,2.53-4.24s2.59-4.2,4.76-7.47a49.06,49.06,0,0,1,8.2-9.34q5-4.44,10.11-4.43c3.44,0,6.07.92,7.87,2.78a3.13,3.13,0,0,1,1,2.42,3.46,3.46,0,0,1-1.32,2.63,4.07,4.07,0,0,1-2.71,1.17,5.33,5.33,0,0,1-2.71-.76,5.65,5.65,0,0,0-2.93-.77q-1.61,0-5.13,2.63-14,10.19-23.07,40.36a110.77,110.77,0,0,0-2.93,11.1c-.34,2-.63,3.67-.88,4.94q-2.19,11.79-6.73,11.79C796.47,473.87,795.76,473,795.76,471.16Z"></path><path class="a" d="M854,471.46q-8.57,0-8.57-10.77t8-26.4a114.84,114.84,0,0,1,18.86-27q10.85-11.38,17.69-11.39t7.8,6c.19,1.22.34,2.51.44,3.88a2.77,2.77,0,0,1,1.61-.44q3.43,0,3.44,3.29v.59c0,.15-.61,2.34-1.83,6.59A198.7,198.7,0,0,0,897.28,437a166.27,166.27,0,0,0-2.35,25.42l1.54,1a17.73,17.73,0,0,1,2.2,1.68,3.44,3.44,0,0,1,1.32,2.67,4.31,4.31,0,0,1-1,2.75,3.22,3.22,0,0,1-2.71,1.21q-3.59,0-6.48-3.66a12.52,12.52,0,0,1-2.89-7.91q0-9.17,5-31.5a124.12,124.12,0,0,1-16.11,25.12q-9.9,12.09-13.66,14.87A13.48,13.48,0,0,1,854,471.46ZM852.89,461c0,1.81.76,2.71,2.27,2.71a3.66,3.66,0,0,0,2.71-1.1q15.17-13,27.17-36.11,6.81-13.17,7.22-15.16a17.18,17.18,0,0,0,.4-3.37,5.1,5.1,0,0,0-.73-2.63,2.28,2.28,0,0,0-2-1.25,9.4,9.4,0,0,0-3.88,1.39q-5.64,3.07-13.88,13.11a102.52,102.52,0,0,0-13.74,21.83Q852.89,452.19,852.89,461Z"></path><path class="a" d="M1037.61,452.71c1.71,0,2.56.9,2.56,2.71a4.72,4.72,0,0,1-2.27,3.73c-2.3,1.56-4.61,3.22-7,5q-12.74,9.53-23.44,9.52a22.79,22.79,0,0,1-11.42-3.07q-11.51-6.45-16.48-23.22a56.61,56.61,0,0,1-2.49-16q0-12.52,4-29.85a210.33,210.33,0,0,1,11.46-34.93q7.47-17.62,17.87-29.41t22.12-11.79q11.73,0,19.71,9.78t8,19.95a5,5,0,0,1-1.54,2.86,3.8,3.8,0,0,1-2.64,1.32,2.3,2.3,0,0,1-2-.88,10.59,10.59,0,0,1-1.32-4.83q-1.17-9.32-6.67-15.13a18,18,0,0,0-13.69-5.82q-8.21,0-17.51,11.06-12.37,14.64-21.24,41.49t-8.86,42.41q0,15.56,5.27,26,6.45,12.75,18.61,12.75,8.93,0,20.5-8.35c2.15-1.56,3.89-2.83,5.2-3.81A6,6,0,0,1,1037.61,452.71Z"></path><path class="a" d="M1067.2,469.18q0,3.45-5.57,3.45a2.23,2.23,0,0,1-2.56-2.49q0-2.49,14.65-69.73,10.9-51.5,13.84-69.51l.58-2a2.64,2.64,0,0,1,2.64-2.2,4.54,4.54,0,0,1,4.76,3.73q-.58,2.79-1.57,7.77t-2.31,11.35q-1.32,6.38-2.86,13.77t-3.15,15q-1.61,7.62-4.9,23.3T1075.11,428q15.3-31.5,28.93-31.49a9.06,9.06,0,0,1,8.27,4.35,17.87,17.87,0,0,1,2.71,9.63,79.75,79.75,0,0,1-1.9,14.73l-2.49,12.59q-4.11,20.73-4.1,24.76l.22,5.71a4,4,0,0,1-1.28,3.08,4.87,4.87,0,0,1-3.41,1.17A3.45,3.45,0,0,1,1099,471a5.28,5.28,0,0,1-1-2.89,12.46,12.46,0,0,1,.22-2.49l8.71-48.71a29,29,0,0,0,.44-5.42q0-7.55-4.17-7.54-7.9,0-21.53,23.65-7.7,13.41-9.45,18.57T1068.74,458a47.72,47.72,0,0,0-1.69,8.6Z"></path><path class="a" d="M1141,404.88v-1.47a26.3,26.3,0,0,0-1.1-5,5.09,5.09,0,0,1,1.25-3.33,3.81,3.81,0,0,1,3-1.5c1.19,0,2.18.76,3,2.27a10.7,10.7,0,0,1,1.18,5q0,2.72-6.89,32.37t-6.88,31.24c0,1.05.48,1.58,1.46,1.58.64,0,1.54-.63,2.71-1.87s2.17-1.87,3-1.87c1.62,0,2.42,1,2.42,3s-1.51,3.8-4.54,5.31-5.23,2.27-6.59,2.27q-5.13,0-5.13-8.2a11.85,11.85,0,0,1,.7-3.77,55.49,55.49,0,0,0,1.46-5.79q.76-3.71,2.2-10.07t2.93-13.19q1.5-6.81,3.66-16.51T1141,404.88Zm10.33-34.21q4.32,0,4.32,4.33c0,4.2-1.46,6.56-4.39,7.1a15.33,15.33,0,0,1-2.71.22,4.2,4.2,0,0,1-2.93-1.47,5.08,5.08,0,0,1-1.47-3.77,5.91,5.91,0,0,1,2.27-4.36A7.23,7.23,0,0,1,1151.28,370.67Z"></path><path class="a" d="M1184,462.3q3.29,0,3.29,3.33c0,2.22-1.45,3.95-4.36,5.17a25.49,25.49,0,0,1-10,1.83q-5.6,0-8.24-3a10.68,10.68,0,0,1-2.63-7.32,61,61,0,0,1,.47-7.95q.48-3.62,1.65-10.07t2.71-14.5q1.55-8.05,3.44-17.28t3.88-18.83q2-9.59,4-19t3.84-18q1.83-8.53,3.37-15.68t2.56-12a3.11,3.11,0,0,1,3.37-2.35q3.15,0,3.15,3.44v1.91q-2.85,13.69-5.64,26.66t-9.48,45q-6.7,32-8.64,43.29t-2,13.55a6.29,6.29,0,0,0,1.4,4,4,4,0,0,0,3.25,1.76,9.08,9.08,0,0,0,3.41-.62c1-.42,2-.85,3-1.32s1.86-.9,2.64-1.32A5,5,0,0,1,1184,462.3Z"></path><path class="a" d="M1233.31,395.72q13.85,0,13.84,20.95,0,16.33-9,35.08-6.08,12.6-14.64,18.17a16.49,16.49,0,0,1-9.09,2.85q-8.27,0-11.86-6.59A29.27,29.27,0,0,1,1199,452a78.11,78.11,0,0,1,4.58-26.44A61.09,61.09,0,0,1,1216,404.22Q1223.87,395.72,1233.31,395.72ZM1213.68,420q-7.9,15.81-7.91,30.9,0,10.49,5.79,14.07a7.45,7.45,0,0,0,4,1.1q4.68,0,10.47-8.13a75.42,75.42,0,0,0,9.74-20q4-11.89,4-20.43t-1-10.8a7.16,7.16,0,0,0-2.27-3.15,7.74,7.74,0,0,0-4.25-.88,11.92,11.92,0,0,0-6.48,2.34Q1219,409.35,1213.68,420Z"></path><path class="a" d="M1257.63,471.46a63.52,63.52,0,0,0,2.08-8.61,66.27,66.27,0,0,1,2.38-9.41,529.07,529.07,0,0,0,10.26-52.66q.23-1.32.33-2.49c.07-.78.79-2,2.16-3.52a7.27,7.27,0,0,1,2.27-.59c1.37,0,2.27.86,2.71,2.57v1.17a114.32,114.32,0,0,1-3.3,23.29L1272.79,437q1.61-3.37,3.51-7.77,8.06-18.6,15-26.33t15.09-7.72a8.93,8.93,0,0,1,7.32,3.62,13.31,13.31,0,0,1,2.86,8.46,9.41,9.41,0,0,1-.08,1.28,8.51,8.51,0,0,0-.07,1.14q8.13-9.88,16.92-13.48a13.66,13.66,0,0,1,5.46-1.17,7.26,7.26,0,0,1,5.23,2.6,9.69,9.69,0,0,1,2.49,7,51.62,51.62,0,0,1-1,9.45q-.94,5.06-2.38,10.18T1340,434.58q-1.8,5.24-4.65,14.54a81.17,81.17,0,0,0-3.37,14.24,39,39,0,0,1-.85,5.9,8,8,0,0,1-1.31,2.23,3.27,3.27,0,0,1-2.75,1.28c-2.3,0-3.44-2.44-3.44-7.32a33.31,33.31,0,0,1,1.68-10c1.13-3.57,2-6.57,2.75-9s1.67-5.37,2.89-8.79,2.74-7.91,4.54-13.48a81.55,81.55,0,0,0,3.59-17.87c0-2-.25-3.26-.77-3.62a4.9,4.9,0,0,0-2.74-.55q-2,0-6,2.56a39.5,39.5,0,0,0-8.1,7.25,71.4,71.4,0,0,0-13.77,26.44c-.87,3.13-1.71,5.81-2.49,8.06s-1.81,5.32-3.11,9.23S1299.8,463,1299,466a20.29,20.29,0,0,1-2,5.6,3.16,3.16,0,0,1-2.75,1.17c-2.29,0-3.54-1.24-3.73-3.73a105,105,0,0,1,5.27-21.75q3.51-9.45,5.71-15t4.25-12.56a43.75,43.75,0,0,0,2-12q0-5.06-3.15-5.05-8.64,0-22.7,28.42-7.55,15.15-9.16,20t-2.49,7.4q-4.83,15.16-9.15,15.16a5,5,0,0,1-2.53-.62A1.78,1.78,0,0,1,1257.63,471.46Z"></path><path class="a" d="M1393.64,330.76l-.3,1q-3.87,25.49-8.38,45.85t-8,37q4.62-8.28,7.77-11.72Q1391.07,396,1397,396a10.37,10.37,0,0,1,9.08,4.54,16.43,16.43,0,0,1,3.15,9.52,118.1,118.1,0,0,1-3.41,25.74q-3.4,14.91-9.34,24.72-7.4,12.38-16.91,12.38a11,11,0,0,1-10.26-6.15,29.18,29.18,0,0,1-3.37-14.21,102.89,102.89,0,0,1,1.14-15.53q1.13-7.47,2.45-15.82t2.53-15.27q1.2-6.92,2.31-12.78t2.23-11.39q1.14-5.53,4.06-19.7t6.08-32.19c.83-1.61,1.83-2.42,3-2.42C1392.34,327.46,1393.64,328.56,1393.64,330.76Zm-20.07,121.8q0,12.74,6,12.74,5.49,0,10.84-8.93,7.24-12.09,10.1-30a67.76,67.76,0,0,0,.81-10.73,31.47,31.47,0,0,0-1-9,4.16,4.16,0,0,0-4.25-3.33q-4.75,0-12.52,11.21t-8.86,22.08Q1373.58,447.51,1373.57,452.56Z"></path><path class="a" d="M1452.6,395.72q13.85,0,13.84,20.95,0,16.33-9,35.08-6.08,12.6-14.65,18.17a16.46,16.46,0,0,1-9.08,2.85q-8.28,0-11.86-6.59a29.16,29.16,0,0,1-3.59-14.21,78.1,78.1,0,0,1,4.57-26.44,61.26,61.26,0,0,1,12.46-21.31Q1443.14,395.72,1452.6,395.72ZM1433,420q-7.9,15.81-7.91,30.9,0,10.49,5.78,14.07a7.5,7.5,0,0,0,4,1.1q4.7,0,10.48-8.13a75.73,75.73,0,0,0,9.74-20q3.95-11.89,4-20.43t-1-10.8a7.09,7.09,0,0,0-2.27-3.15,7.7,7.7,0,0,0-4.24-.88,12,12,0,0,0-6.49,2.34Q1438.24,409.35,1433,420Z"></path></g></svg> 